<?xml version="1.0" encoding="utf-8"?>
<!-- Generator: Adobe Illustrator 26.0.0, SVG Export Plug-In . SVG Version: 6.00 Build 0)  -->
<svg version="1.1" id="Layer_1" xmlns="http://www.w3.org/2000/svg" xmlns:xlink="http://www.w3.org/1999/xlink" x="0px" y="0px"
	 viewBox="0 0 60 60" style="enable-background:new 0 0 60 60;" xml:space="preserve">
<style type="text/css">
	.st0{fill:#C79B66;}
</style>
<polygon class="st0" points="39.26,26.03 39.87,26.03 38.71,28.05 38.71,28.98 38.14,28.98 38.14,28.05 36.99,26.03 37.6,26.03 
	38.41,27.46 38.45,27.46 "/>
<polygon class="st0" points="40.6,26.03 42.87,26.03 42.87,26.51 41.17,26.51 41.17,27.27 42.34,27.27 42.34,27.76 41.17,27.76 
	41.17,28.49 42.91,28.49 42.91,28.98 40.6,28.98 "/>
<path class="st0" d="M46.52,28.98h-0.61l-0.22-0.59h-1.4l-0.22,0.59h-0.61l1.18-2.95h0.71L46.52,28.98z M44.5,27.88h0.99L45,26.66
	h-0.02L44.5,27.88z"/>
<path class="st0" d="M48.59,26.03c0.77,0,1.18,0.42,1.18,0.97c0,0.63-0.53,0.84-0.53,0.84v0.02l0.75,1.12h-0.67l-0.67-1.01h-0.79
	v1.01H47.3v-2.95H48.59z M48.59,26.51h-0.73v0.97h0.73c0.38,0,0.59-0.25,0.59-0.48C49.18,26.72,48.98,26.51,48.59,26.51"/>
<path class="st0" d="M52.83,26.3l-0.22,0.4c0,0-0.32-0.25-0.75-0.25c-0.39,0-0.57,0.19-0.57,0.34c0,0.59,1.6,0.29,1.6,1.33
	c0,0.51-0.43,0.95-1.24,0.95c-0.66,0-1.07-0.4-1.07-0.4l0.24-0.4c0,0,0.33,0.32,0.79,0.32c0.47,0,0.69-0.23,0.69-0.46
	c0-0.53-1.6-0.25-1.6-1.33c0-0.42,0.41-0.84,1.11-0.84C52.43,25.94,52.83,26.3,52.83,26.3"/>
<path class="st0" d="M36.55,8.33L36.55,8.33c-0.84,0.71-1.78,1.31-2.8,1.77c-1.01,0.45-2.17,0.68-3.45,0.68
	c-0.87,0-1.66-0.11-2.36-0.33c-0.73-0.23-1.48-0.49-2.2-0.76c-0.71-0.29-1.41-0.55-2.11-0.79c-0.73-0.25-1.56-0.38-2.44-0.38
	c-1.61,0-2.93,0.24-3.92,0.72c-0.94,0.46-2,1.05-3.16,1.78c-0.28,0.18-2.71,1.78-3.16,2.16c-0.44,0.38-0.85,0.75-1.21,1.1
	c-0.52,0.5-0.72,0.84-0.72,1.2c0,0.63,0.39,1.06,0.96,1.06c0.48,0,0.97-0.32,1.48-0.97c0.38-0.49,0.86-1.03,1.42-1.63
	c0.53-0.57,1.18-1.1,1.93-1.57c0.7-0.44,1.56-0.67,2.56-0.67c0.82,0,1.59,0.11,2.29,0.33c0.73,0.23,1.48,0.49,2.22,0.77
	c0.79,0.29,1.6,0.55,2.41,0.79c0.83,0.25,1.73,0.37,2.65,0.37c1.84,0,5.91,0.26,8.06-0.84L3.4,40.96l6.42,0.05l30.12-30.17
	L36.55,8.33z"/>
<polygon class="st0" points="2.36,36.58 4.18,38.85 3.74,39.23 2.37,37.51 2.35,37.52 2.22,38.18 1.77,38.08 1.99,36.9 "/>
<path class="st0" d="M4.72,38.1l-0.06-0.47c0,0,0.33-0.04,0.6-0.27c0.34-0.3,0.39-0.77,0.13-1.15l-0.02,0.01
	c0,0-0.07,0.34-0.35,0.58c-0.55,0.47-1.17,0.41-1.51-0.01c-0.34-0.42-0.28-1.07,0.27-1.55c0.53-0.46,1.27-0.39,1.87,0.36
	c0.62,0.78,0.55,1.61-0.04,2.12C5.2,38.07,4.72,38.1,4.72,38.1 M3.97,36.4c0.17,0.21,0.48,0.24,0.75,0.01
	c0.28-0.24,0.37-0.56,0.37-0.56c-0.31-0.39-0.74-0.43-0.99-0.21C3.83,35.86,3.8,36.19,3.97,36.4"/>
<path class="st0" d="M6.35,35.54l0.09-2.49l0.44-0.38l1.14,1.43l0.3-0.26l0.31,0.39l-0.3,0.26l0.36,0.45l-0.44,0.38L7.9,34.87
	l-1.23,1.06L6.35,35.54z M7.58,34.48l-0.67-0.84L6.9,33.65l-0.04,1.43l0.01,0.02L7.58,34.48z"/>
<path class="st0" d="M9.85,31.09c0.31,0.38,0.03,0.8,0.03,0.8l0.01,0.02c0,0,0.54-0.31,0.92,0.16c0.27,0.34,0.22,0.96-0.39,1.49
	c-0.61,0.53-1.21,0.47-1.48,0.13c-0.38-0.47,0.01-0.97,0.01-0.97L8.95,32.7c0,0-0.44,0.21-0.75-0.18c-0.26-0.33-0.22-0.9,0.31-1.36
	C9.04,30.7,9.59,30.76,9.85,31.09 M8.82,31.55c-0.23,0.2-0.26,0.47-0.14,0.62c0.12,0.15,0.37,0.17,0.61-0.03
	c0.23-0.2,0.26-0.47,0.14-0.62C9.31,31.37,9.05,31.35,8.82,31.55 M9.37,33.26c0.13,0.16,0.41,0.19,0.74-0.09
	c0.33-0.28,0.35-0.58,0.22-0.74c-0.13-0.16-0.41-0.19-0.74,0.09C9.27,32.8,9.24,33.1,9.37,33.26"/>
<polygon class="st0" points="12.14,29.75 12.45,30.14 11,31.39 10.69,31 "/>
<path class="st0" d="M13.96,27.68c0.28,0.36,0.24,0.74,0.14,1.2l-0.21,0.92l0.01,0.02l1.06-0.92l0.3,0.37l-1.71,1.48l-0.3-0.37
	l0.35-1.54c0.07-0.31,0.09-0.54-0.08-0.76c-0.16-0.19-0.44-0.22-0.75,0.05c-0.34,0.3-0.44,0.71-0.44,0.71l-0.43-0.15
	c0,0,0.1-0.56,0.56-0.95C13.05,27.24,13.65,27.29,13.96,27.68"/>
<path class="st0" d="M16.79,28.06c-0.56,0.49-1.36,0.41-1.96-0.34c-0.6-0.75-0.52-1.58,0.04-2.06c0.56-0.48,1.36-0.41,1.96,0.34
	C17.42,26.74,17.35,27.58,16.79,28.06 M16.48,27.67c0.3-0.26,0.34-0.76-0.09-1.3c-0.43-0.53-0.91-0.58-1.21-0.33
	c-0.3,0.26-0.34,0.76,0.09,1.3C15.7,27.88,16.18,27.93,16.48,27.67"/>
<path class="st0" d="M18.58,23.69c0.28,0.36,0.24,0.74,0.14,1.2l-0.21,0.92l0.01,0.02l1.06-0.92l0.3,0.37l-1.71,1.48l-0.3-0.37
	l0.35-1.54c0.07-0.31,0.09-0.54-0.08-0.76c-0.16-0.19-0.44-0.22-0.75,0.05c-0.34,0.3-0.44,0.71-0.44,0.71l-0.43-0.15
	c0,0,0.1-0.56,0.56-0.95C17.67,23.24,18.27,23.3,18.58,23.69"/>
<path class="st0" d="M20.18,21.18l0.3,0.37l-0.23,1.16l0.01,0.02c0.45-0.39,0.99-0.34,1.28,0.02c0.31,0.39,0.26,0.98-0.4,1.55
	c-0.5,0.43-1.06,0.39-1.06,0.39l-0.06-0.47c0,0,0.45-0.01,0.8-0.31c0.34-0.3,0.37-0.62,0.26-0.77c-0.14-0.18-0.43-0.21-0.77,0.09
	l-0.36,0.31l-0.27-0.34l0.23-1.13l-0.01-0.02l-1.03,0.89l-0.3-0.37L20.18,21.18z"/>
<path class="st0" d="M58.32,16.63l-0.37,0.23c-0.87,0.54-1.88,1-2.99,1.37c-1.1,0.36-2.4,0.54-3.89,0.54
	c-1.17,0-2.44-0.22-3.76-0.64c-1.31-0.42-2.54-1.06-3.65-1.91l-0.42-0.32l-7.06,6.17l-14.62,12.4l1.97,0.96l0.25-0.14
	c1.3-0.73,2.7-1.38,4.15-1.94c1.42-0.55,2.94-0.91,4.5-1.08c2.32-0.25,4.1,0.05,5.29,0.88c1.17,0.83,1.82,2.02,1.98,3.65
	c0.16,1.61-0.06,3.23-0.65,4.83c-0.6,1.61-1.52,3.09-2.73,4.42c-1.23,1.33-2.78,2.46-4.63,3.37c-1.85,0.91-3.97,1.49-6.3,1.74
	c-2.68,0.29-4.87-0.04-6.53-0.98c-1.61-0.91-2.48-2.28-2.67-4.19c-0.14-1.42,0.26-2.61,1.23-3.67c0.97-1.07,2.33-1.7,4.03-1.88
	c0.26-0.03,0.52-0.04,0.76-0.05c0.24,0,0.5,0,0.78,0.01l0.47,0.02l0.25-1.14l-0.34-0.22c-1.56-1.03-3.38-1.45-5.4-1.23
	c-2.42,0.26-4.35,1.13-5.71,2.6c-1.39,1.49-2.01,3.23-1.82,5.16c0.15,1.54,0.72,2.86,1.7,3.93c0.94,1.05,2.16,1.88,3.62,2.47
	c1.43,0.58,3.03,0.96,4.76,1.14c1.72,0.16,3.48,0.15,5.25-0.04c2.68-0.29,5.28-0.96,7.73-2.02c2.45-1.05,4.66-2.34,6.55-3.84
	c1.91-1.51,3.42-3.21,4.5-5.04c1.1-1.88,1.57-3.77,1.39-5.6c-0.26-2.64-1.51-4.54-3.71-5.64c-2.11-1.06-4.93-1.41-8.39-1.04
	c-1.54,0.16-2.88,0.44-3.99,0.8c-0.33,0.11-0.66,0.23-0.99,0.34l8.65-6.81l0.05,0.01l0.69-0.59l0.29-0.23l-0.01-0.01l2.26-1.93
	c1.49,0.48,2.76,0.87,3.78,1.18c1.16,0.35,2.49,0.53,3.97,0.53c0.98,0,2.01-0.15,3.07-0.45c1.04-0.29,2.06-0.69,3.01-1.17
	c0.94-0.48,1.83-1.02,2.63-1.6c0.83-0.59,1.47-1.21,1.92-1.82l0.34-0.46L58.32,16.63z"/>
</svg>
