<?xml version="1.0" encoding="utf-8"?>
<!-- Generator: Adobe Illustrator 26.0.0, SVG Export Plug-In . SVG Version: 6.00 Build 0)  -->
<svg version="1.1" id="Layer_1" xmlns="http://www.w3.org/2000/svg" xmlns:xlink="http://www.w3.org/1999/xlink" x="0px" y="0px"
	 viewBox="0 0 60 60" style="enable-background:new 0 0 60 60;" xml:space="preserve">
<style type="text/css">
	.st0{fill:#C79B66;}
</style>
<path class="st0" d="M47.47,31.38c-0.13-6.11-2.5-11.16-7.21-15.05c-2.53-2.09-5.48-3.38-8.73-3.91c-4.3-0.7-8.37,0.01-12.2,2.1
	c-0.33,0.18-0.4,0.35-0.21,0.68c0.23,0.41,0.43,0.83,0.63,1.26c0.3,0.66,0,1.11-0.72,1.04c-1.43-0.14-2.85-0.32-4.27-0.49
	c-1.62-0.19-3.23-0.38-4.85-0.57c-0.11-0.01-0.22-0.03-0.34-0.05c-0.89-0.15-1.06-0.51-0.6-1.3c0.94-1.58,1.89-3.15,2.83-4.73
	c0.65-1.08,1.29-2.16,1.94-3.24c0.17-0.29,0.34-0.61,0.76-0.58c0.4,0.03,0.54,0.36,0.69,0.67c0.27,0.55,0.56,1.09,0.81,1.65
	c0.14,0.3,0.28,0.36,0.59,0.21c1.36-0.64,2.74-1.21,4.19-1.62c1.68-0.47,3.4-0.71,5.14-0.84c3.48-0.26,6.82,0.34,10.05,1.56
	c3.66,1.39,6.8,3.58,9.4,6.53c1.82,2.07,3.24,4.37,4.26,6.93c0.94,2.35,1.46,4.8,1.63,7.33c0.18,2.7-0.12,5.36-0.9,7.93
	c-1.72,5.67-5.09,10.11-10.16,13.23c-2.79,1.72-5.82,2.78-9.06,3.15c-3.86,0.45-7.62-0.03-11.23-1.53
	c-4.75-1.97-8.35-5.22-10.93-9.64c-0.15-0.26-0.29-0.56,0.02-0.77c0.36-0.24,0.55,0.06,0.73,0.32c1.92,2.99,4.39,5.4,7.5,7.11
	c2.97,1.64,6.14,2.53,9.56,2.61c3.58,0.09,6.96-0.68,10.09-2.38c4.79-2.59,8.05-6.5,9.72-11.72C47.2,35.37,47.45,33.4,47.47,31.38z"
	/>
<path class="st0" d="M26.94,40.51c0,2.21,0,4.42,0,6.63c0,0.57-0.03,0.59-0.52,0.31c-2.74-1.58-5.47-3.17-8.21-4.75
	c-1.07-0.62-2.15-1.25-3.23-1.84c-0.83-0.46-1.23-1.12-1.23-2.08c0.02-4.1,0.01-8.19,0.01-12.29c0-0.71,0.02-0.72,0.64-0.36
	c3.6,2.08,7.2,4.16,10.81,6.24c0.45,0.26,0.89,0.53,1.35,0.76c0.3,0.15,0.39,0.37,0.39,0.7C26.93,36.05,26.93,38.28,26.94,40.51
	C26.93,40.51,26.93,40.51,26.94,40.51z"/>
<path class="st0" d="M29.22,40.45c0-2.16,0.01-4.32-0.01-6.48c-0.01-0.47,0.16-0.73,0.55-0.96c2.21-1.26,4.42-2.53,6.63-3.8
	c1.72-0.99,3.43-1.98,5.15-2.97c0.14-0.08,0.28-0.16,0.42-0.24c0.27-0.16,0.38-0.07,0.37,0.23c-0.01,0.58,0,1.16,0,1.74
	c0,3.66-0.01,7.32,0,10.98c0,0.82-0.33,1.41-1.04,1.82c-3.13,1.8-6.25,3.61-9.38,5.41c-0.73,0.42-1.45,0.84-2.18,1.26
	c-0.47,0.27-0.51,0.25-0.51-0.32C29.22,44.9,29.22,42.67,29.22,40.45C29.22,40.45,29.22,40.45,29.22,40.45z"/>
<path class="st0" d="M33.33,28.25c-0.03,0.12-0.12,0.16-0.2,0.2c-1.57,0.91-3.15,1.82-4.72,2.74c-0.28,0.16-0.5,0.12-0.76-0.04
	c-2.96-1.73-5.93-3.44-8.9-5.16c-1.13-0.65-2.26-1.3-3.4-1.94c-0.29-0.16-0.37-0.29-0.02-0.49c1.59-0.91,3.18-1.83,4.77-2.75
	c0.26-0.15,0.46-0.04,0.67,0.08c1.48,0.85,2.96,1.7,4.44,2.55c2.61,1.51,5.21,3.02,7.82,4.53C33.14,28.05,33.3,28.08,33.33,28.25z"
	/>
<path class="st0" d="M28.11,16.51c0.29-0.02,0.61,0.1,0.91,0.27c2.48,1.43,4.97,2.87,7.45,4.3c1.4,0.8,2.8,1.6,4.19,2.41
	c0.49,0.29,0.48,0.33,0,0.61c-1.46,0.85-2.93,1.69-4.38,2.56c-0.37,0.22-0.65,0.21-1.02-0.01c-4.02-2.34-8.06-4.67-12.09-7
	c-0.49-0.28-0.49-0.33-0.02-0.61c1.29-0.75,2.59-1.5,3.89-2.25C27.36,16.61,27.69,16.51,28.11,16.51z"/>
</svg>
