<svg id="MDI_twitter" data-name="MDI / twitter" xmlns="http://www.w3.org/2000/svg" width="17" height="17" viewBox="0 0 17 17">
  <g id="Boundary" fill="#fff" stroke="rgba(0,0,0,0)" stroke-width="1" opacity="0">
    <rect width="17" height="17" stroke="none"/>
    <rect x="0.5" y="0.5" width="16" height="16" fill="none"/>
  </g>
  <path id="Path_twitter" data-name="Path / twitter" d="M16.358,5.417a6.069,6.069,0,0,1-1.743.489A3.045,3.045,0,0,0,15.948,4.22a6.121,6.121,0,0,1-1.927.744A2.992,2.992,0,0,0,11.782,4,3.035,3.035,0,0,0,8.758,7.039a3.158,3.158,0,0,0,.078.694A8.638,8.638,0,0,1,2.574,4.56,3.027,3.027,0,0,0,3.516,8.6,3.005,3.005,0,0,1,2.135,8.25v.021a3.041,3.041,0,0,0,2.437,2.982A2.979,2.979,0,0,1,3.2,11.3a3.032,3.032,0,0,0,2.833,2.111,6.036,6.036,0,0,1-3.775,1.3,6.178,6.178,0,0,1-.722-.043A8.644,8.644,0,0,0,14.85,7.393c0-.135,0-.262-.007-.4A6.072,6.072,0,0,0,16.358,5.417Z" transform="translate(-0.123 -1.167)" fill="#fff"/>
</svg>
