<svg id="MDI_facebook" data-name="MDI / facebook" xmlns="http://www.w3.org/2000/svg" width="17" height="17" viewBox="0 0 17 17">
  <g id="Boundary" fill="#fff" stroke="rgba(0,0,0,0)" stroke-width="1" opacity="0">
    <rect width="17" height="17" stroke="none"/>
    <rect x="0.5" y="0.5" width="16" height="16" fill="none"/>
  </g>
  <path id="Path_facebook" data-name="Path / facebook" d="M9.083,2.04A7.1,7.1,0,0,0,7.978,16.15V11.192h-1.8V9.138h1.8V7.572a2.5,2.5,0,0,1,2.678-2.755,11.1,11.1,0,0,1,1.58.135V6.7h-.893a1.024,1.024,0,0,0-1.155,1.105V9.138h1.969l-.319,2.054h-1.65V16.15A7.1,7.1,0,0,0,9.083,2.04Z" transform="translate(-0.583 -0.623)" fill="#fff"/>
</svg>
