<?xml version="1.0" encoding="utf-8"?>
<!-- Generator: Adobe Illustrator 26.0.0, SVG Export Plug-In . SVG Version: 6.00 Build 0)  -->
<svg version="1.1" id="Layer_1" xmlns="http://www.w3.org/2000/svg" xmlns:xlink="http://www.w3.org/1999/xlink" x="0px" y="0px"
	 viewBox="0 0 60 60" style="enable-background:new 0 0 60 60;" xml:space="preserve">
<style type="text/css">
	.st0{fill:#C79B66;}
</style>
<g>
	<path class="st0" d="M12.33,10.35c1.5-1.15,3.15-2.04,4.89-2.78c1.51-0.65,3.08-1.1,4.69-1.45c2.15-0.46,4.34-0.52,6.52-0.39
		c2.46,0.15,4.84,0.71,7.14,1.63c2.45,0.98,4.7,2.31,6.72,4.01c0.98,0.82,1.88,1.72,2.73,2.67c0.07,0.08,0.13,0.16,0.19,0.25
		c0.18,0.27,0.13,0.47-0.15,0.62c-1.15,0.62-2.3,1.23-3.45,1.84c-1.51,0.81-3.01,1.63-4.53,2.43c-0.4,0.22-0.46,0.33-0.9-0.06
		c-1.02-0.89-2.14-1.63-3.37-2.21c-0.78-0.36-1.58-0.66-2.41-0.88c-1.33-0.35-2.68-0.55-4.05-0.51c-1.55,0.05-3.06,0.32-4.53,0.84
		c-1.73,0.61-3.28,1.51-4.66,2.71c-1.48,1.29-2.66,2.82-3.53,4.59c-0.61,1.25-1.05,2.55-1.26,3.92c-0.18,1.2-0.33,2.41-0.15,3.65
		c0.12,0.82,0.21,1.65,0.42,2.46c0.32,1.22,0.8,2.37,1.42,3.46c1.21,2.12,2.85,3.82,4.92,5.12c1.27,0.79,2.62,1.38,4.07,1.74
		c0.74,0.19,1.49,0.3,2.25,0.39c0.57,0.07,1.15,0.11,1.72,0.08c1.84-0.09,3.62-0.44,5.32-1.18c1.99-0.86,3.7-2.1,5.14-3.71
		c1.08-1.21,1.92-2.58,2.53-4.08c0.55-1.35,0.93-2.74,1.01-4.21c0.01-0.25,0.11-0.46,0.31-0.63c0.86-0.73,1.71-1.47,2.56-2.21
		c0.84-0.73,1.67-1.46,2.5-2.19c1.02-0.89,2.03-1.77,3.05-2.65c0.43-0.37,0.6-0.28,0.76,0.28c0.31,1.12,0.49,2.26,0.65,3.4
		c0.12,0.9,0.12,1.81,0.1,2.54c0,1.05,0.02,1.92-0.09,2.79c-0.26,1.98-0.68,3.92-1.38,5.8c-0.75,2.01-1.74,3.89-2.98,5.63
		c-1.3,1.83-2.84,3.44-4.58,4.87c-1.71,1.4-3.59,2.52-5.6,3.41c-1.4,0.62-2.87,1.06-4.37,1.42c-2.31,0.55-4.65,0.63-7.01,0.52
		c-1.19-0.05-2.36-0.26-3.52-0.51c-1.33-0.29-2.63-0.68-3.88-1.19c-1.84-0.75-3.57-1.69-5.17-2.86c-1.5-1.1-2.89-2.34-4.1-3.75
		c-1.56-1.8-2.84-3.8-3.82-5.97c-0.64-1.41-1.14-2.87-1.49-4.38c-0.2-0.84-0.33-1.69-0.45-2.55c-0.26-1.9-0.25-3.8-0.07-5.69
		C2.59,25.6,3,23.85,3.59,22.15c0.83-2.4,2-4.61,3.51-6.65c0.57-0.77,1.16-1.54,1.87-2.19 M16.66,50.4
		c0.07-0.22,0.12-0.38,0.16-0.55c0.14-0.59,0.28-1.18,0.42-1.76c0.05-0.2,0.15-0.31,0.37-0.31c0.48-0.01,0.96-0.09,1.44-0.08
		c0.3,0.01,0.59-0.09,0.89-0.13c-0.06-0.14-0.16-0.18-0.26-0.24c-0.56-0.34-1.12-0.69-1.68-1.03c-0.18-0.11-0.26-0.24-0.2-0.47
		c0.11-0.38,0.21-0.76,0.3-1.15c0.09-0.37,0.16-0.74,0.25-1.14c-0.19,0.04-0.28,0.13-0.37,0.21c-0.33,0.28-0.65,0.56-0.97,0.84
		c-0.71,0.62-0.7,0.62-1.49,0.13c-0.5-0.31-1.02-0.6-1.53-0.9c-0.06,0.12-0.01,0.2,0.02,0.27c0.26,0.64,0.51,1.28,0.79,1.91
		c0.09,0.2,0.1,0.33-0.07,0.47c-0.54,0.46-1.08,0.92-1.61,1.39c-0.08,0.07-0.25,0.11-0.19,0.25c0.05,0.11,0.19,0.02,0.29,0.02
		c0.7-0.02,1.39-0.18,2.09-0.16c0.17,0.01,0.3,0.04,0.37,0.22c0.13,0.34,0.25,0.69,0.4,1.02C16.28,49.57,16.38,49.99,16.66,50.4z
		 M7.36,42.02c0.02,0.01,0.05,0.02,0.07,0.02c0.55-0.55,1.11-1.1,1.66-1.65c0.14-0.15,0.25-0.2,0.46-0.09
		c0.63,0.33,1.27,0.64,1.9,0.96c0.07,0.04,0.16,0.1,0.23,0.04c0.09-0.08-0.01-0.15-0.04-0.22c-0.31-0.6-0.62-1.21-0.94-1.81
		c-0.12-0.23-0.11-0.4,0.08-0.58c0.49-0.47,0.96-0.96,1.44-1.44c0.06-0.06,0.18-0.12,0.12-0.22c-0.04-0.08-0.16-0.04-0.24-0.03
		c-0.64,0.11-1.27,0.22-1.91,0.33c-0.43,0.08-0.49,0.04-0.68-0.35c-0.29-0.58-0.59-1.15-0.89-1.73c-0.04-0.07-0.06-0.18-0.16-0.17
		c-0.11,0.01-0.08,0.13-0.1,0.2c-0.09,0.69-0.18,1.38-0.28,2.08C8.07,37.55,8,37.72,7.8,37.72c-0.28,0.01-0.53,0.1-0.8,0.14
		c-0.53,0.07-1.05,0.17-1.59,0.26c0.04,0.13,0.12,0.14,0.18,0.18c0.6,0.3,1.19,0.6,1.79,0.91c0.37,0.19,0.4,0.33,0.31,0.76
		C7.56,40.65,7.47,41.34,7.36,42.02z M45.91,42.11c-0.12-0.77-0.23-1.46-0.35-2.14c-0.04-0.26-0.13-0.52,0.18-0.69
		c0.4-0.2,0.8-0.4,1.2-0.61c0.3-0.16,0.62-0.27,0.95-0.52c-0.83-0.14-1.58-0.29-2.34-0.4c-0.29-0.04-0.41-0.17-0.4-0.44
		c0-0.08,0.01-0.17,0-0.25c-0.11-0.57-0.22-1.14-0.27-1.73c-0.01-0.08,0.02-0.19-0.07-0.22c-0.13-0.04-0.15,0.1-0.18,0.17
		c-0.3,0.56-0.59,1.13-0.87,1.7c-0.21,0.41-0.26,0.44-0.7,0.37c-0.51-0.08-1.02-0.21-1.54-0.24c-0.2-0.01-0.38-0.18-0.62-0.06
		c0.08,0.16,0.2,0.27,0.32,0.39c0.41,0.42,0.81,0.84,1.24,1.24c0.23,0.21,0.25,0.43,0.1,0.67c-0.35,0.55-0.58,1.17-0.91,1.73
		c-0.04,0.07-0.16,0.16-0.06,0.24c0.08,0.06,0.18-0.02,0.26-0.06c0.56-0.28,1.12-0.57,1.68-0.85c0.44-0.22,0.44-0.21,0.79,0.13
		C44.81,41.03,45.32,41.53,45.91,42.11z M39.28,43.78c-0.69,0.43-1.33,0.82-1.96,1.22c-0.22,0.14-0.39,0.17-0.61-0.03
		c-0.49-0.44-1-0.86-1.5-1.28c-0.07-0.06-0.15-0.17-0.24-0.11c-0.11,0.07-0.04,0.19-0.02,0.29c0.16,0.63,0.3,1.26,0.48,1.88
		c0.08,0.29-0.01,0.44-0.25,0.59c-0.57,0.33-1.12,0.68-1.68,1.03c-0.07,0.05-0.17,0.08-0.18,0.19c0.74,0.2,1.5,0.13,2.25,0.21
		c0.24,0.03,0.39,0.1,0.45,0.34c0.07,0.33,0.15,0.65,0.23,0.97c0.11,0.42,0.22,0.84,0.33,1.27c0.14-0.06,0.16-0.17,0.2-0.26
		c0.26-0.63,0.52-1.25,0.76-1.88c0.07-0.17,0.16-0.26,0.34-0.25c0.38,0.02,0.75,0.02,1.12,0.07c0.43,0.07,0.87,0.05,1.3,0.07
		c0-0.14-0.09-0.17-0.15-0.22c-0.52-0.44-1.04-0.87-1.57-1.3c-0.2-0.17-0.27-0.33-0.15-0.59c0.21-0.44,0.4-0.9,0.57-1.36
		C39.11,44.37,39.26,44.14,39.28,43.78z M26.67,45.93c-0.03,0-0.05-0.01-0.08-0.01c-0.24,0.72-0.49,1.43-0.7,2.16
		c-0.09,0.3-0.24,0.4-0.54,0.39c-0.64-0.01-1.28-0.01-1.91,0c-0.1,0-0.21-0.04-0.29,0.05c0.02,0.08,0.09,0.12,0.15,0.16
		c0.57,0.42,1.14,0.85,1.72,1.26c0.16,0.11,0.2,0.21,0.14,0.39c-0.12,0.34-0.22,0.7-0.33,1.04c-0.13,0.42-0.27,0.83-0.43,1.32
		c0.12-0.06,0.17-0.08,0.21-0.11c0.57-0.42,1.15-0.83,1.72-1.26c0.22-0.16,0.39-0.18,0.61-0.01c0.37,0.29,0.75,0.57,1.14,0.83
		c0.24,0.17,0.46,0.38,0.74,0.49c0.05-0.08,0.01-0.12,0-0.17c-0.23-0.73-0.46-1.45-0.69-2.18c-0.06-0.17-0.02-0.26,0.13-0.36
		c0.45-0.31,0.89-0.63,1.32-0.96c0.19-0.15,0.41-0.27,0.62-0.52c-0.18,0-0.29,0-0.4,0c-0.64,0-1.28-0.01-1.91,0
		c-0.27,0-0.41-0.1-0.49-0.37C27.15,47.37,26.91,46.65,26.67,45.93z M18.47,11.63c0.11,0.05,0.15,0.12,0.19,0.19
		c0.27,0.54,0.56,1.08,0.82,1.62c0.35,0.72,0.35,0.72,1.05,0.34c0.16-0.09,0.2-0.17,0.11-0.34c-0.49-0.95-0.97-1.92-1.46-2.87
		c-0.13-0.25-0.17-0.61-0.42-0.69c-0.26-0.08-0.49,0.23-0.76,0.31c-0.23,0.08-0.3,0.23-0.28,0.45c0.03,0.59,0.05,1.19,0.08,1.79
		c0,0.07,0.02,0.16-0.05,0.2c-0.08,0.05-0.13-0.03-0.19-0.08c-0.3-0.24-0.61-0.47-0.91-0.72c-0.75-0.63-0.81-0.63-1.6-0.15
		c-0.19,0.12-0.17,0.22-0.09,0.38c0.52,1.01,1.03,2.03,1.55,3.04c0.29,0.57,0.29,0.55,0.89,0.26c0.22-0.11,0.24-0.21,0.13-0.41
		c-0.35-0.66-0.68-1.32-1.02-1.98c-0.04-0.08-0.11-0.16-0.03-0.27c0.08-0.01,0.13,0.05,0.18,0.1c0.35,0.3,0.72,0.58,1.05,0.89
		c0.2,0.19,0.38,0.15,0.59,0.05c0.24-0.11,0.32-0.28,0.27-0.53C18.47,12.7,18.55,12.18,18.47,11.63z M13.82,18.25
		c-0.04-0.12-0.13-0.11-0.21-0.11c-0.53,0.01-1.07-0.01-1.6,0.04c-0.31,0.03-0.4-0.05-0.41-0.36c-0.01-0.54-0.43-1.1-0.87-1.23
		c-0.52-0.15-1.05,0.04-1.41,0.51c-0.36,0.48-0.7,0.99-1.07,1.47c-0.13,0.17-0.1,0.27,0.06,0.38c0.29,0.2,0.58,0.41,0.86,0.62
		c0.7,0.51,1.4,1.01,2.11,1.52c0.34,0.24,0.34,0.24,0.57-0.09c0.07-0.09,0.14-0.18,0.21-0.27c0.1-0.15,0.13-0.27-0.06-0.39
		c-0.3-0.2-0.58-0.44-0.88-0.65c-0.2-0.14-0.14-0.27-0.02-0.41c0.1-0.12,0.23-0.13,0.37-0.13c0.37,0,0.74-0.04,1.1,0
		c0.52,0.07,0.82-0.17,1.05-0.59C13.69,18.45,13.76,18.35,13.82,18.25z M31.12,11.67c0.4,0.04,0.96-0.53,1.18-0.9
		c0-0.01,0.04,0,0.06,0c0.1,0.09-0.78,2.67-0.58,2.7l0.91,0.25c-0.03,0.24-0.03,0,0,0c0.26-1.08,0.65-2.4,0.89-3.48
		c0.05-0.24,0.25-0.53,0.1-0.7c-0.14-0.16-0.46-0.15-0.7-0.23c-0.29-0.09-0.5-0.02-0.69,0.25c-0.3,0.45-0.65,0.87-0.97,1.3
		c-0.06,0.07-0.12,0.18-0.22,0.15c-0.11-0.03-0.08-0.16-0.09-0.24c-0.12-0.6-0.24-1.21-0.36-1.81c-0.02-0.09-0.02-0.2-0.14-0.22
		c-0.29-0.07-0.59-0.14-0.88-0.21c-0.12-0.03-0.2,0.02-0.23,0.14c-0.1,0.44-0.21,0.87-0.32,1.31c-0.17,0.71-0.32,1.43-0.51,2.13
		c-0.15,0.56-0.12,0.66,0.47,0.74c0.02,0,0.04,0,0.06,0.01c0.23,0.07,0.3-0.01,0.35-0.24c0.17-0.79,0.37-1.58,0.58-2.44
		c0.17,0.22,0.63,1.15,0.64,1.33L31.12,11.67z M23.99,9.74c-0.03,0.64,0.06,1.27,0.13,1.91c0.04,0.38,0.22,0.69,0.54,0.91
		c0.59,0.39,1.22,0.36,1.87,0.22c0.98-0.22,1.18-0.97,1.14-1.72c-0.02-0.31-0.04-0.63-0.04-0.94c-0.01-0.41,0.02-0.81-0.04-1.22
		c-0.08-0.54-0.07-0.52-0.63-0.54c-0.3-0.01-0.4,0.09-0.39,0.39c0.03,0.85,0.11,1.69,0.08,2.54c-0.01,0.52-0.26,0.8-0.74,0.82
		c-0.43,0.02-0.78-0.29-0.78-0.77c0.01-0.76-0.13-1.5-0.13-2.25c0-0.65-0.05-0.69-0.7-0.61c-0.21,0.03-0.32,0.12-0.31,0.35
		C24,9.14,23.99,9.44,23.99,9.74z M13.47,12.85c-0.07,0.05-0.13,0.09-0.18,0.13c-0.61,0.54-1.22,1.08-1.84,1.61
		c-0.16,0.14-0.1,0.24,0.02,0.36c0.84,0.93,1.67,1.87,2.5,2.81c0.14,0.16,0.24,0.2,0.41,0.05c0.61-0.54,1.22-1.08,1.84-1.61
		c0.11-0.1,0.1-0.2,0.01-0.3c-0.08-0.08-0.16-0.16-0.23-0.25c-0.1-0.12-0.19-0.14-0.31-0.02c-0.19,0.19-0.39,0.38-0.6,0.55
		c-0.8,0.65-0.48,0.66-1.24-0.12c-0.01-0.01-0.01-0.02-0.02-0.02c-0.11-0.12-0.12-0.23,0.02-0.35c0.26-0.22,0.52-0.45,0.78-0.68
		c0.37-0.35,0.36-0.35,0-0.71c-0.12-0.12-0.21-0.14-0.34-0.02c-0.28,0.26-0.57,0.52-0.86,0.78c-0.14,0.12-0.25,0.25-0.44,0.04
		c-0.33-0.37-0.37-0.46-0.15-0.66c0.32-0.29,0.65-0.56,0.96-0.85c0.07-0.07,0.23-0.13,0.12-0.28
		C13.78,13.14,13.66,12.96,13.47,12.85z M9.55,22.01c0-0.1,0-0.19,0-0.27c0.01-0.88-1.26-1.55-1.91-1.2
		c-0.33,0.18-0.58,0.41-0.74,0.74c-0.25,0.55-0.47,1.11-0.71,1.67c-0.06,0.14-0.03,0.21,0.11,0.27c1.2,0.5,2.41,1,3.61,1.49
		c0.13,0.05,0.24,0.06,0.3-0.1c0.07-0.19,0.14-0.37,0.22-0.55c0.06-0.15,0.02-0.23-0.13-0.29c-0.25-0.1-0.49-0.24-0.75-0.32
		c-0.31-0.09-0.34-0.26-0.23-0.52C9.46,22.62,9.6,22.33,9.55,22.01z M20.93,9.9c0.14-0.03,0.19,0.09,0.22,0.22
		c0.19,0.75,0.37,1.49,0.56,2.24c0.06,0.26,0.02,0.43-0.29,0.46c-0.09,0.01-0.2,0.03-0.22,0.14c-0.07,0.27,0.21,0.56,0.49,0.5
		c0.58-0.13,1.15-0.28,1.73-0.42c0.13-0.03,0.18-0.08,0.13-0.22c-0.05-0.12-0.07-0.24-0.1-0.36c-0.03-0.1-0.09-0.14-0.21-0.12
		c-0.44,0.1-0.45,0.08-0.55-0.36c-0.15-0.63-0.3-1.26-0.47-1.88c-0.12-0.44-0.14-0.45,0.29-0.62c0.19-0.08,0.2-0.22,0.14-0.35
		c-0.06-0.13,0-0.39-0.31-0.31c-0.59,0.16-1.19,0.3-1.79,0.44c-0.1,0.02-0.19,0.07-0.17,0.19c0.02,0.16,0.03,0.35,0.11,0.48
		c0.08,0.14,0.22-0.04,0.34-0.03C20.84,9.92,20.87,9.91,20.93,9.9z"/>
	<path class="st0" d="M59.22,11.2c0.01,0.16-0.07,0.28-0.19,0.38c-1.25,1.08-2.5,2.16-3.74,3.24c-1.34,1.16-2.67,2.34-4.01,3.5
		c-1.04,0.9-2.09,1.8-3.13,2.7c-1.33,1.16-2.66,2.32-3.99,3.48c-1.05,0.91-2.1,1.81-3.15,2.72c-1.32,1.15-2.65,2.31-3.97,3.46
		c-1.06,0.92-2.13,1.84-3.2,2.77c-1.32,1.15-2.65,2.31-3.97,3.46c-1.2,1.04-2.4,2.08-3.6,3.12c-0.26,0.23-0.46,0.21-0.72-0.1
		c-0.38-0.45-0.75-0.93-1.12-1.39c-0.93-1.18-1.87-2.36-2.8-3.54c-1.3-1.65-2.6-3.3-3.9-4.94c-0.39-0.49-0.78-0.98-1.18-1.47
		c-0.27-0.34-0.23-0.58,0.12-0.84c1.72-1.28,3.43-2.56,5.15-3.84c0.74-0.56,1.49-1.11,2.23-1.67c0.36-0.27,0.64-0.2,0.83,0.21
		c0.72,1.54,1.44,3.09,2.15,4.63c0.17,0.37,0.42,0.45,0.81,0.24c0.93-0.5,1.86-1,2.78-1.5c1.51-0.81,3.02-1.61,4.53-2.42
		c1.55-0.83,3.1-1.68,4.66-2.51c1.81-0.97,3.62-1.96,5.44-2.91c1.03-0.54,2.05-1.12,3.08-1.67c2.5-1.34,5-2.68,7.5-4.01
		c0.88-0.47,1.76-0.95,2.65-1.43C58.88,10.67,59.22,10.82,59.22,11.2z"/>
	<path class="st0" d="M51.87,30.89"/>
	<path class="st0" d="M10.81,18.24c-0.01,0.27-0.38,0.83-0.54,0.82c-0.11-0.01-0.89-0.62-0.89-0.7c-0.01-0.24,0.56-0.79,0.81-0.79
		C10.5,17.58,10.82,17.92,10.81,18.24z"/>
	<path class="st0" d="M8.75,22.31c0.01,0.12-0.12,0.32-0.2,0.53c-0.04,0.1-0.11,0.12-0.2,0.08c-0.31-0.13-0.62-0.25-0.93-0.38
		c-0.17-0.07-0.21-0.19-0.12-0.35c0.08-0.15,0.16-0.29,0.26-0.43c0.18-0.24,0.42-0.3,0.7-0.19C8.54,21.68,8.74,21.86,8.75,22.31z"/>
</g>
<g>
	<g>
		<path d="M117.22,248.33c5.08-8.01,8.66-16.8,13.06-25.16c3.31-6.28,3.97-6.56,10.23-3.19c7.89,4.25,15.76,8.55,23.59,12.9
			c2.1,1.17,5.22,2.39,3.42,5.48c-1.83,3.15-4.38,0.8-6.46-0.3c-6.86-3.63-13.67-7.35-21.06-11.33c-0.07,3.84,1.02,6.78,1.88,9.71
			c15.4,52.66,63.18,87.98,117.98,88.77c57.95,0.83,111.63-41.31,122.59-101.3c2.83-15.48,2.64-31.03-0.31-46.53
			c-0.49-2.57-2.39-6.32,1.67-7.11c3.95-0.76,3.9,3.46,4.34,5.97c7.31,41.59-1.98,78.94-29.98,110.78
			c-28.79,32.73-65.64,47.15-108.92,43.92c-53.24-3.97-99.73-43.09-113.73-94.57c-0.42-1.55-0.94-3.08-1.81-5.89
			c-3.66,7.26-6.85,13.38-9.85,19.59c-1.43,2.96-3.25,4.56-6.64,3.23C117.22,251.65,117.22,249.99,117.22,248.33z"/>
		<path d="M328.68,201.69c-0.06,37.77-30.38,67.87-68.3,67.79c-37.73-0.08-67.74-30.43-67.66-68.42
			c0.08-37.65,30.52-67.65,68.55-67.54C298.67,133.62,328.73,164.02,328.68,201.69z M241.32,169.96c-7.8,0-15.6-0.01-23.4,0
			c-2.98,0-4.71,1.31-4.65,4.49c0.06,3.17,2.33,3.16,4.55,3.18c2.65,0.03,5.31,0,7.97,0.02c4.81,0.05,9.62,0.04,14.43,0.22
			c1.9,0.07,3.78,0.81,3.85,3.1c0.09,2.58-1.87,3.27-4,3.46c-1.32,0.12-2.65,0.09-3.98,0.1c-6.14,0.01-12.28-0.01-18.42,0.03
			c-1.81,0.01-4.18-0.12-4.25,2.34c-0.18,6.96-0.05,13.92,0.07,20.89c0.01,0.72,0.56,1.73,1.17,2.1c3.42,2.12,4.28,3.99,0.07,6.29
			c-1.62,0.89-1.89,2.85-0.7,4.37c2.1,2.7,5.22,1.36,7.91,1.61c2.1,0.2,3.14-0.79,3.9-2.9c2.45-6.76,6.7-10.05,12.71-9.97
			c6.6,0.09,10.9,3.55,12.91,9.74c0.73,2.26,1.96,3.2,4.31,3.17c6.64-0.08,13.28-0.03,19.91-0.03c1.77,0,3.22-0.31,3.79-2.39
			c1.79-6.49,6.02-10.37,12.83-10.46c7.09-0.1,11.31,3.98,13.3,10.57c0.37,1.22,0.94,2.29,2.39,1.92c3.07-0.77,5.12-2.9,5.08-5.98
			c-0.03-2.88,2.32-6.94-2.74-8.21c-1.53-0.38-3.07-0.75-3.02-2.65c0.05-1.88,1.65-2.3,3.15-2.61c2.58-0.52,2.86-1.92,1.55-3.94
			c-2.89-4.45-5.77-8.92-8.72-13.33c-1.07-1.61-2.68-2.46-4.65-2.46c-4.98-0.02-9.96-0.05-14.93-0.01c-3.25,0.03-4.85,1.75-4.85,5
			c0,2.99,0.02,5.98-0.07,8.96c-0.06,1.99-0.04,4.45-2.87,4.26c-2.38-0.15-2.39-2.42-2.41-4.25c-0.05-5.14,0.01-10.29-0.05-15.43
			c-0.09-7.96-3.15-11.07-11.24-11.22C255.26,169.85,248.29,169.95,241.32,169.96z M246.56,222.52c0.04-4.52-3.2-7.85-7.69-7.92
			c-4.59-0.07-7.89,3.04-8.02,7.57c-0.14,4.85,3.08,8.15,7.91,8.13C243.31,230.29,246.51,227.09,246.56,222.52z M292.51,230.31
			c4.55,0.01,7.78-3.16,7.87-7.72c0.08-4.5-3.14-7.88-7.62-7.98c-4.79-0.11-8.16,3.23-8.08,7.99
			C284.75,227.22,287.89,230.3,292.51,230.31z"/>
		<path d="M364.14,133.68c-8.59-13.18-18.33-23.28-29.78-31.62c-70.86-51.63-169.46-17.41-193.1,66.95
			c-2.51,8.97-4.15,18.11-4.1,27.48c0.01,1.49-0.06,3-0.3,4.46c-0.28,1.76-1.17,3.3-3.19,3.19c-2.06-0.11-2.6-1.77-2.71-3.56
			c-0.38-6.33,0.32-12.61,1.24-18.85c8.43-56.72,54.84-102.38,112.07-108.98c48.47-5.59,88.2,11.41,119.14,49.13
			c1.37,1.67,2.18,5.07,4.65,4.37c2-0.57,1.07-3.85,1.47-5.9c0.77-3.9,1.11-7.88,1.7-11.82c0.31-2.03,0.82-4.25,3.45-4.04
			c2.64,0.21,2.93,2.46,2.66,4.52c-1.24,9.37-2.58,18.73-3.89,28.09c-0.4,2.89-2.2,4.04-4.92,3.58c-9.33-1.56-18.64-3.21-27.95-4.87
			c-1.89-0.34-3.8-1.08-3.48-3.41c0.35-2.57,2.47-2.89,4.59-2.54C348.71,131.01,355.7,132.24,364.14,133.68z"/>
		<path d="M192.4,272.2c-4.69-1.03-4.15,2.71-5.46,4.69c-1.01,1.53-0.36,5.35-3.54,4.02c-2.46-1.04-4.4-3.62-3.11-6.99
			c0.71-1.86,1.38-3.73,2.04-5.6c0.48-1.35,0.46-2.69-0.75-3.62c-1.49-1.16-2.41,0.23-3.4,1c-2.42,1.86-4.61,4.87-7.66,0.65
			c-1.35-1.87-1.3-3.21,0.43-4.66c5.47-4.56,10.92-9.13,16.35-13.74c1.85-1.58,3.45-1.68,5.06,0.33c2.48,3.1,5.11,6.09,7.5,9.26
			c2.26,2.98,3.02,6.32,1.01,9.74C198.88,270.66,195.99,272.61,192.4,272.2z"/>
		<path d="M307.43,270.79c6.11-0.12,11.3,4.81,9.85,9.6c-1.39,4.58,0.39,6.23,3.79,8.04c1.47,0.78,4.7,1.44,3.18,3.84
			c-1.27,2.01-3.94,3.74-6.92,2.17c-2.05-1.08-4-2.35-6.03-3.47c-1.24-0.68-2.59-0.85-3.64,0.33c-0.99,1.13-0.07,2.16,0.43,3.17
			c0.44,0.89,0.91,1.77,1.42,2.62c1.3,2.17,0.73,3.64-1.48,4.82c-2.19,1.18-3.89,1.53-5.32-1.11c-3.3-6.12-6.71-12.18-10.16-18.22
			c-1.34-2.36-0.98-4,1.5-5.23C298.78,275.02,302.94,271.5,307.43,270.79z"/>
		<path d="M338.35,259.86c-3.67-2.96-6.2-5.06-8.79-7.07c-1.81-1.4-2.08-2.82-0.5-4.58c1.38-1.54,2.6-3.12,4.89-1.19
			c5.57,4.7,11.23,9.31,16.81,14c1.18,0.99,2.14,2.18,1.07,3.86c-1.41,2.21-3.12,3.79-6.06,3.48c-4.24-0.44-8.35-2.01-14.08-1.75
			c3.38,2.75,5.84,4.81,8.37,6.79c1.86,1.46,2.51,2.9,0.75,4.97c-1.63,1.91-3,2.8-5.32,0.8c-4.88-4.23-10.01-8.19-14.92-12.39
			c-1.49-1.28-4.07-2.37-2.5-5.16c1.41-2.51,3.46-3.85,6.56-3.4C328.69,258.79,332.64,260.22,338.35,259.86z"/>
		<path d="M276.86,92.69c4.35,0.01,8.13,1.62,11.36,4.39c1.23,1.05,3.73,2.36,1.87,4.3c-1.6,1.67-4.01,3.29-6.54,0.87
			c-1.46-1.39-3.05-2.61-5.1-2.94c-1.57-0.26-3.17-0.05-3.65,1.72c-0.46,1.67,1,2.3,2.23,2.81c2.3,0.95,4.69,1.7,6.95,2.71
			c3.06,1.37,5.34,3.6,5.38,7.14c0.04,3.77-1.83,6.63-5.18,8.46c-5.01,2.73-13.91,1.43-18.6-2.91c-1.33-1.23-3.83-2.72-2-4.78
			c1.57-1.77,4.1-3.07,6.56-0.69c2.13,2.07,4.64,3.2,7.64,2.95c1.32-0.11,2.84-0.21,3.02-1.94c0.15-1.38-0.99-2.04-2.07-2.49
			c-1.84-0.76-3.76-1.32-5.59-2.09c-5.57-2.35-7.71-5.6-6.75-10.14C267.36,95.49,271.29,92.73,276.86,92.69z"/>
		<path d="M254.05,121.17c-1.22,0.19-2.15-0.22-3.15-1c-4.3-3.35-9.02-2.53-11.73,2.13c-1.66,2.86-4.41,3.23-6.85,2.58
			c-2.41-0.65-0.84-3.2-0.62-4.76c1.05-7.2,2.44-14.35,3.54-21.55c0.45-2.93,1.99-4.28,4.82-4.74c2.65-0.43,4.38,0.42,5.75,2.73
			c3.79,6.41,7.73,12.74,11.57,19.12C259.78,119.65,258.88,121.1,254.05,121.17z"/>
		<path d="M214.56,128.23c2.33-1.4,5.03-3,7.71-4.63c1.89-1.14,3.64-2.43,5.44,0.31c1.8,2.74,0.08,3.83-1.88,5.02
			c-4.24,2.58-8.52,5.12-12.67,7.84c-2.37,1.55-3.97,1.68-5.59-1.1c-3.59-6.15-7.41-12.16-11.23-18.17c-1.5-2.35-1.67-4.1,1.09-5.68
			c4.17-2.38,8.22-4.96,12.29-7.52c2.02-1.28,3.6-1.31,4.94,0.99c1.33,2.29-0.07,3.32-1.71,4.35c-2.11,1.31-4.2,2.65-6.32,3.94
			c-1.24,0.76-2.19,1.55-1.22,3.17c0.89,1.47,1.98,1.53,3.34,0.68c1.97-1.22,3.98-2.37,5.96-3.59c1.77-1.09,3.27-1.36,4.62,0.74
			c1.33,2.07,0.64,3.36-1.21,4.47c-1.98,1.2-3.93,2.45-5.91,3.67c-1.34,0.82-1.8,1.9-1.03,3.34
			C211.79,127.26,212.44,128.45,214.56,128.23z"/>
		<path d="M218.46,291c-1.77-0.99-3.93-2.21-6.11-3.41c-1.56-0.86-3.05-1.39-4.27,0.6c-1.3,2.11-0.37,3.43,1.45,4.46
			c2.02,1.15,4.07,2.24,6.09,3.39c1.83,1.04,3.4,2.11,2.05,4.68c-1.34,2.55-2.98,2.03-4.92,0.9c-4.3-2.51-8.6-5.01-12.94-7.45
			c-2.15-1.2-2.71-2.61-1.38-4.85c3.62-6.15,7.16-12.34,10.65-18.57c1.15-2.05,2.52-2.37,4.48-1.22c4.15,2.43,8.31,4.85,12.51,7.2
			c1.94,1.08,2.59,2.31,1.37,4.42c-1.33,2.3-2.86,1.67-4.59,0.69c-2.16-1.23-4.34-2.43-6.52-3.64c-1.23-0.69-2.25-0.42-2.98,0.75
			c-0.82,1.31-0.14,2.2,0.97,2.86c2.14,1.28,4.29,2.52,6.44,3.78c1.32,0.78,1.92,1.83,1.15,3.31
			C221.29,290.1,220.6,291.27,218.46,291z"/>
		<path d="M278.53,298.15c-0.46-3.36-0.96-7.47-1.6-11.57c-0.35-2.25-0.13-3.99,2.56-4.41c2.6-0.4,4.67,0.01,5.09,3.14
			c0.66,4.93,1.61,9.84,1.9,14.79c0.35,6.17-4.31,10.83-11.17,11.78c-6.1,0.85-11.34-2.57-12.6-8.64c-0.97-4.7-1.46-9.5-2.13-14.25
			c-0.39-2.77,0.64-4.42,3.6-4.78c2.95-0.35,3.79,1.42,4.13,3.77c0.56,3.94,1.1,7.88,1.58,11.82c0.39,3.15,1.52,5.55,5.26,5.14
			C278.99,304.53,278.58,301.58,278.53,298.15z"/>
		<path d="M304.47,115.51c-0.42-4.78-0.78-8.4-1.04-12.03c-0.18-2.64,0.85-3.21,3.28-2c3.33,1.66,4.81,4.08,4.86,7.87
			c0.07,5.42,0.41,5.62,5.29,2.98c3.12-1.69,5.72-1.83,8.72,0.22c2.79,1.9,2.01,2.89-0.44,3.95c-1.67,0.72-3.3,1.59-5.02,2.15
			c-5.94,1.95-10.47,5.41-12.98,11.33c-1.09,2.58-2.49,4.6-6,2.44c-3.49-2.15-2.03-4.24-0.67-6.6
			C302.53,122.27,305.35,118.96,304.47,115.51z"/>
		<path d="M249.75,289.72c-2.34-0.74-3.14,1.2-3.62,3.51c-0.93,4.54-1.85,9.09-2.75,13.64c-0.5,2.54-1.82,3.74-4.55,3.18
			c-2.69-0.55-3.54-2.15-3.04-4.69c0.9-4.55,1.8-9.1,2.72-13.64c0.46-2.28,0.67-4.27-2.52-4.72c-2.22-0.32-3.63-1.51-2.88-4.15
			c0.72-2.54,2.59-2.19,4.39-1.85c4.56,0.86,9.09,1.82,13.64,2.74c2.08,0.42,3.98,1.02,3.37,3.82
			C254.02,289.84,252.55,290.44,249.75,289.72z"/>
		<path d="M156.68,176.56c-0.06-1.11-0.6-2.91,0.25-2.79c3.45,0.49,6.97-1.33,9.77-0.74c2.15,0.45,1.43,5.98,4.39,8.04
			c-2.48,2.53-4.75,6.76-7.49,7.09c-2.64,0.32-6.09-3.09-8.46-5.55C154.53,181.98,157.58,178.94,156.68,176.56z"/>
		<path d="M364.62,176.91c-0.07,2.52-3.62,9.35-5.41,10.86c-0.84,0.71-1.85,1.39-2.41,0.24c-1.29-2.63-2.94-4.64-5.87-5.52
			c-0.95-0.28-1-1.65-0.23-1.97c3.62-1.5,0.98-7.61,5.08-7.67c2.31-0.03,4.7,1.19,7.47,0.75
			C366.37,173.11,364.34,175.8,364.62,176.91z"/>
		<path d="M172.55,140.31c2.51,1.55,4.92-3.16,6.95-0.8c1.49,1.73,0.5,5.13,2.93,6.98c1.13,0.86,1.14,2.11-0.38,2.66
			c-2.31,0.84-3.97,2.18-4.82,4.56c-0.37,1.05-1.42,1.78-2.25,0.74c-1.87-2.33-4.11-3.65-7.11-3.81c-0.7-0.04-1.13-0.92-0.69-1.52
			c1.77-2.41,1.81-5,1.74-7.9C168.85,138.71,171.13,140.51,172.55,140.31z"/>
		<path d="M364.16,214.29c-1.75,2.58,3.5,4.86,0.68,6.88c-1.84,1.31-4.57,1.43-6.16,3.61c-1.1,1.51-2.3,1.09-2.99-0.47
			c-0.92-2.11-2.48-3.39-4.58-4.22c-1.3-0.52-1.85-1.61-0.62-2.66c1.9-1.62,2.76-3.58,2.87-6.03c0.05-1.16,0.96-1.9,2.07-1.36
			c2.34,1.15,4.68,1.02,7.2,0.86C365.07,210.74,363.97,212.92,364.16,214.29z"/>
		<path d="M182.61,342.73c0.38-2.01,0.66-3.44,1.17-6.11c1.75,4.57,7.63,1.74,8.18,7.28c0.76-5.48,4.85-4.75,8.16-5.24
			c1.6-0.23,2.35,1.01,2.82,2.24c0.55,1.43,0.85,3.33-0.39,4.21c-3.7,2.62-2-2.63-3.87-2.87c-1.64-0.92,1.17,8.1-3.04,1.36
			c-0.52-0.83-0.4-0.12-0.69,0.1c-4.53,3.49-6.69,3.2-9.37-1.82c0.11,4.58-2.98,4.1-5.44,4.18c-2.21,0.07-1-1.97-1.4-3.03
			c-0.45-1.18-0.48-2.36,0.89-2.94C182.02,339.08,181.3,341.82,182.61,342.73z"/>
		<path d="M293.62,198.49c-1.49,0-2.98-0.06-4.46,0.01c-4.58,0.24-6.59-1.82-6.58-6.48c0-4.64,1.96-6.49,6.56-6.55
			c5.77-0.07,11.23-0.31,14.25,6.17c1.98,4.24,1.27,6.29-3.33,6.74c-2.13,0.21-4.29,0.04-6.43,0.04
			C293.62,198.44,293.62,198.47,293.62,198.49z"/>
		<path d="M243.72,199.46c-4.46,0.01-8.92,0.09-13.38-0.03c-2.23-0.06-4.61-0.61-4.47-3.48c0.13-2.66,2.47-2.72,4.5-2.73
			c9.25-0.02,18.5-0.02,27.75,0.01c2.08,0.01,4.28,0.34,4.24,3.01c-0.05,2.52-2.19,3.13-4.27,3.18
			C253.3,199.52,248.51,199.45,243.72,199.46z"/>
	</g>
</g>
<g>
	<path d="M875.45-375.11c-1.33-63.01-25.82-115.16-74.45-155.33c-26.14-21.59-56.59-34.9-90.13-40.32
		c-44.39-7.18-86.42,0.13-125.95,21.72c-3.39,1.85-4.12,3.66-2.17,7.06c2.39,4.18,4.45,8.57,6.46,12.95
		c3.09,6.76,0.03,11.43-7.44,10.7c-14.72-1.44-29.4-3.33-44.1-5.04c-16.68-1.94-33.36-3.9-50.04-5.86
		c-1.16-0.14-2.31-0.29-3.46-0.49c-9.15-1.57-10.98-5.31-6.18-13.43c9.65-16.33,19.5-32.54,29.25-48.81
		c6.67-11.13,13.29-22.29,19.98-33.41c1.8-2.99,3.54-6.33,7.82-6c4.16,0.32,5.57,3.71,7.12,6.89c2.77,5.68,5.74,11.27,8.36,17.01
		c1.42,3.11,2.92,3.7,6.12,2.18c13.99-6.65,28.31-12.52,43.26-16.68c17.37-4.83,35.08-7.33,53.07-8.67
		c35.89-2.67,70.43,3.48,103.71,16.1c37.79,14.33,70.18,36.9,96.98,67.41c18.77,21.37,33.44,45.15,43.97,71.48
		c9.71,24.28,15.11,49.5,16.82,75.64c1.83,27.91-1.22,55.31-9.25,81.86c-17.71,58.56-52.53,104.38-104.87,136.55
		c-28.81,17.71-60.07,28.67-93.54,32.54c-39.86,4.61-78.6-0.34-115.91-15.8c-49.02-20.31-86.16-53.9-112.76-99.52
		c-1.59-2.72-3.03-5.8,0.23-7.97c3.69-2.46,5.71,0.57,7.49,3.34c19.8,30.81,45.29,55.71,77.43,73.4
		c30.65,16.87,63.4,26.1,98.64,26.95c36.98,0.89,71.8-7.03,104.14-24.53c49.48-26.78,83.1-67.09,100.31-120.91
		C872.7-333.93,875.29-354.26,875.45-375.11z"/>
	<path d="M663.56-280.95c0,22.81,0,45.61,0,68.42c0,5.83-0.36,6.12-5.35,3.23c-28.25-16.29-56.45-32.67-84.69-48.98
		c-11.09-6.41-22.16-12.87-33.38-19.03c-8.58-4.71-12.71-11.51-12.68-21.43c0.16-42.28,0.07-84.57,0.07-126.86
		c0-7.28,0.22-7.45,6.62-3.76c37.19,21.45,74.35,42.95,111.52,64.42c4.61,2.66,9.16,5.46,13.9,7.87c3.13,1.59,4.05,3.81,4.03,7.19
		c-0.11,22.97-0.06,45.95-0.06,68.92C663.54-280.95,663.55-280.95,663.56-280.95z"/>
	<path d="M687.12-281.56c0-22.3,0.15-44.6-0.12-66.89c-0.06-4.85,1.65-7.55,5.72-9.86c22.86-12.97,45.6-26.12,68.37-39.24
		c17.72-10.21,35.43-20.47,53.14-30.7c1.44-0.83,2.91-1.61,4.34-2.46c2.81-1.68,3.88-0.75,3.86,2.35
		c-0.05,5.99,0.02,11.98,0.02,17.97c-0.01,37.77-0.07,75.55,0,113.32c0.02,8.46-3.38,14.59-10.75,18.83
		c-32.29,18.56-64.52,37.24-96.78,55.87c-7.49,4.33-14.98,8.65-22.46,12.98c-4.9,2.83-5.3,2.63-5.31-3.27
		c-0.03-22.96-0.01-45.93-0.01-68.89C687.13-281.56,687.12-281.56,687.12-281.56z"/>
	<path d="M729.54-407.48c-0.27,1.24-1.26,1.6-2.1,2.09c-16.24,9.43-32.52,18.81-48.72,28.32c-2.86,1.68-5.13,1.21-7.84-0.37
		c-30.6-17.81-61.24-35.55-91.89-53.26c-11.66-6.74-23.35-13.4-35.08-20.02c-2.95-1.67-3.85-2.96-0.24-5.01
		c16.45-9.4,32.87-18.87,49.23-28.42c2.72-1.59,4.75-0.39,6.92,0.86c15.28,8.78,30.56,17.54,45.82,26.36
		c26.91,15.56,53.8,31.15,80.68,46.76C727.54-409.47,729.24-409.21,729.54-407.48z"/>
	<path d="M675.68-528.63c3.03-0.16,6.26,0.99,9.35,2.78c25.63,14.8,51.27,29.58,76.92,44.35c14.41,8.3,28.87,16.51,43.22,24.9
		c5.1,2.98,4.94,3.42,0.01,6.29c-15.1,8.76-30.23,17.48-45.2,26.46c-3.78,2.27-6.72,2.14-10.51-0.07
		c-41.52-24.19-83.14-48.21-124.74-72.27c-5.01-2.9-5.11-3.41-0.23-6.26c13.36-7.79,26.77-15.5,40.15-23.26
		C667.89-527.57,671.34-528.61,675.68-528.63z"/>
	<path d="M868.9,153.14c0-15.78,0.01-31.56-0.01-47.34c-0.01-8.15-0.04-8.21,8.21-8.14c12.02,0.09,10.99-1.61,11.04,10.91
		c0.09,23.96,0.01,47.93-0.03,71.89c-0.01,6.48-0.25,6.02-6.79,6.77c-9.22,1.05-14.72-2.01-19.2-10.55
		c-7.41-14.11-16.43-27.37-24.78-40.98c-0.67-1.09-1.44-2.1-2.3-3.34c-1.32,1.99-0.76,3.85-0.76,5.58
		c-0.06,14.48-0.14,28.96,0.03,43.43c0.05,4.29-1.43,5.88-5.81,5.8c-16.14-0.3-13.38,1.96-13.49-13.36
		c-0.16-23.43,0.05-46.87-0.15-70.3c-0.04-4.67,1.64-6.04,6.1-5.9c15.58,0.51,11.24-2.44,19.34,10.78
		c9.2,15.01,18.33,30.07,27.49,45.11C868.17,153.37,868.53,153.26,868.9,153.14z"/>
	<path d="M735.02,143.82c0.26-14.76-0.96-28.05,0.01-41.34c0.18-2.44,0.13-4.84,3.54-4.76c13.77,0.34,27.65-1.51,41.3,1.1
		c19.44,3.72,28.25,25.57,17.25,41.98c-1.9,2.83-4.24,5.2-7.26,6.69c-3.41,1.68-3.47,3.75-1.79,6.8c4.97,9.03,9.8,18.13,14.6,27.25
		c2.74,5.21,2.42,4.78-3.19,5.68c-11.47,1.85-18.38-2.27-22.04-13.38c-1.79-5.45-5.26-10.35-8.05-15.46
		c-1.61-2.96-11.8-4.76-14.31-2.57c-1.45,1.26-1.12,3.06-1.1,4.68c0.07,6.98,0.13,13.96,0.35,20.94c0.12,3.84-1,5.79-5.35,5.71
		c-16.7-0.28-13.58,2.01-13.94-13.42C734.81,163.27,734.19,152.81,735.02,143.82z M763.46,139.6c2.98-0.1,5.97,0.17,8.94-0.57
		c6.62-1.64,9.79-5.64,9.75-12.53c-0.05-7.24-3.27-11.21-10.13-12.68c-4.78-1.02-9.61-0.53-14.43-0.63
		c-2.56-0.06-3.6,1.33-3.55,3.73c0.09,4.49,0.27,8.97,0.27,13.46C754.32,140.56,753.84,139.54,763.46,139.6z"/>
	<path d="M426.35,143.96c0.3-14.77-0.86-27.88-0.05-41.02c0.23-3.69,1.11-5.43,5.14-5.35c11.47,0.22,22.97-0.23,34.42,0.3
		c10.12,0.46,19.13,4.33,23.95,13.78c5.04,9.87,4.11,19.95-1.71,29.49c-1.79,2.94-4.34,5.09-7.32,6.61
		c-2.98,1.52-3.07,3.35-1.62,6.04c4.89,9.07,9.64,18.22,14.48,27.32c2.82,5.29,2.43,5.33-3.26,6.12
		c-10.6,1.47-17.62-1.66-21.19-12.41c-1.91-5.76-5.51-10.97-8.42-16.38c-1.59-2.96-11.77-4.79-14.31-2.62
		c-1.47,1.25-1.14,3.05-1.12,4.67c0.07,7.15,0.12,14.3,0.34,21.44c0.12,3.85-1.46,5.29-5.33,5.2c-16.59-0.39-13.6,2.23-13.94-13.42
		C426.16,163.24,425.54,152.78,426.35,143.96z M445.7,126.01c0,3.33-0.03,6.65,0.01,9.98c0.02,1.8,0.56,3.46,2.71,3.49
		c5.8,0.08,11.68,0.9,17.33-1.03c4.53-1.55,6.94-5.04,7.6-9.66c1.43-10.03-3.91-15.56-15.55-15.52
		C443.64,113.34,445.39,110.61,445.7,126.01z"/>
	<path d="M652.21,131.47c0-9.32,0.14-18.64-0.07-27.96c-0.09-4.15,1.01-6.05,5.58-5.92c15.96,0.46,13.64-2.32,13.72,13.7
		c0.07,15.15,0.31,30.3-0.07,45.43c-0.32,12.71,9.65,17.25,19.73,15.07c6.89-1.49,9.97-5.24,10.18-12.83
		c0.33-11.79,1.49-23.56,0.29-35.39c-0.73-7.28,0.1-14.62,0.5-21.93c0.15-2.67,1.14-3.97,3.89-3.96c18.41,0.1,15.34-2.4,15.3,13.48
		c-0.04,15.8,0.69,31.6-0.52,47.4c-1.22,15.89-9.16,25.88-24.86,28.72c-12.23,2.22-24.34,1.45-34.3-7.57
		c-6.12-5.54-9.21-12.57-9.33-20.79C652.11,149.78,652.21,140.63,652.21,131.47z"/>
	<path d="M938.43,188.2c-14.09-0.12-24.57-2.45-32.73-11.1c-3.42-3.62-5.3-8.01-6.39-12.78c-0.83-3.62,0.11-5.89,4.38-5.67
		c2.49,0.13,5.01,0.24,7.48,0c4.44-0.44,6.71,0.82,7.95,5.69c1.8,7.04,8.25,8.44,14.57,9.17c2.68,0.31,5.29-0.23,7.88-0.92
		c3.98-1.06,6.32-3.77,7.01-7.63c0.67-3.77-1.06-6.82-4.12-9.03c-3.14-2.26-6.77-3.5-10.36-4.83c-7.01-2.59-14.28-4.57-20.54-8.88
		c-8.33-5.73-12.9-13.41-11.54-23.75c1.23-9.33,7.05-15.45,15.45-18.64c13.38-5.07,26.73-5.1,39.16,3.03
		c6.16,4.03,9.36,10.13,10.88,17.26c0.82,3.86-0.63,5.26-4.36,5.03c-1.99-0.12-4-0.17-5.98,0.01c-4.85,0.45-7.96-0.33-9.95-6.03
		c-2.91-8.33-19.88-9.17-24.81-1.8c-2.4,3.58-1.56,8.22,2.09,11.03c4.31,3.31,9.45,4.8,14.51,6.46c9.05,2.97,18.02,6.04,24.08,14.14
		c8.94,11.95,5.47,27.92-7.67,34.91C949.25,187.13,942.62,188.39,938.43,188.2z"/>
	<path d="M736.92,38.26c-10.29,0.23-18.87-1.92-26.57-7.14c-6.14-4.16-9.49-10.07-10.83-17.27c-0.63-3.39,0.49-5.11,4.09-4.99
		c2.16,0.07,4.35,0.16,6.49-0.08c5.01-0.55,7.95,0.48,9.56,6.31c2.45,8.82,20.25,11.86,26.58,5.12c3.8-4.04,3.19-10.79-1.38-14.05
		c-3.28-2.34-7.07-3.66-10.84-5c-7.36-2.62-14.79-5.12-21.27-9.69c-15.27-10.76-14.38-30.7,1.8-39.91
		c14.99-8.54,36.4-5.82,47.08,5.96c3.34,3.69,5.21,8.02,6.02,12.92c0.56,3.36-0.26,5.15-4.01,4.9c-2.15-0.15-4.34-0.21-6.48,0.02
		c-4.99,0.53-8.68-0.23-9.7-6.27c-0.53-3.11-3.69-4.55-6.62-5.52c-4.08-1.36-8.22-1.2-12.3-0.1c-3.6,0.97-6.27,3.07-6.97,6.99
		c-0.7,3.91,0.89,6.7,4.19,8.82c5.55,3.58,11.95,4.97,18,7.25c7.37,2.78,14.48,5.98,19.47,12.48c8.89,11.57,5.57,27.65-7.16,34.72
		C750.27,36.95,744.48,38.25,736.92,38.26z"/>
	<path d="M652.53,19.27c-4.1,0.4-9.82-1.72-13.81,0.94c-3.83,2.56-4.09,8.45-5.62,12.97c-1.02,3.02-2.73,4.25-5.86,4.12
		c-3.65-0.15-7.32-0.16-10.97,0.02c-3.89,0.19-4.6-1.29-3.27-4.77c4.54-11.96,8.9-24,13.37-35.99c5.41-14.48,10.97-28.9,16.24-43.43
		c1.38-3.81,3.27-5.55,7.55-5.41c14.52,0.47,11.27-2,16.34,11.36c9.19,24.24,18.17,48.57,27.19,72.87c1.86,5.01,1.61,5.26-3.79,5.33
		c-14.3,0.18-14.42,0.23-18.92-12.91c-1.27-3.71-3.05-5.54-7.13-5.17C660.38,19.52,656.86,19.27,652.53,19.27z M654.11-25.92
		c-0.42-0.01-0.85-0.02-1.27-0.03c-3.03,9.03-6.07,18.06-9.07,27.1c-0.53,1.6,0.04,2.59,1.86,2.59c5.15,0,10.29-0.01,15.44-0.01
		c1.68,0,2.62-0.7,2.05-2.45C660.15-7.8,657.12-16.86,654.11-25.92z"/>
	<path d="M549.29-7.52c0-12.97,0.13-25.95-0.08-38.92c-0.07-4.29,1.26-5.86,5.69-5.8c16.46,0.21,32.93,0.16,49.4,0.02
		c3.89-0.03,5.23,1.42,5.32,5.24c0.22,10.32,0.35,10.31-10.17,10.32c-8.65,0.01-17.3,0.15-25.95-0.01c-3.65-0.07-5.18,1.3-5.04,4.94
		c0.14,3.65,0.13,7.32-0.01,10.98c-0.13,3.49,1.47,4.65,4.82,4.6c8.15-0.14,16.31,0.12,24.45-0.13c4.28-0.13,6.27,1.29,5.81,5.7
		c-0.15,1.48-0.09,2.99-0.04,4.49c0.1,3.14-1.33,4.46-4.52,4.43c-8.48-0.09-16.97,0.12-25.45-0.03c-3.63-0.06-5.17,1.22-5.03,4.92
		c0.17,4.48,0.16,8.99-0.07,13.47c-0.2,3.96,1.5,5.21,5.32,5.14c9.81-0.19,19.63,0.11,29.44-0.16c4.62-0.13,6.56,1.21,6.52,6.13
		c-0.09,9.47,0.14,9.47-9.52,9.47c-14.97,0-29.94-0.13-44.91,0.08c-4.45,0.06-6.18-1.24-6.09-5.92
		C549.46,18.43,549.29,5.45,549.29-7.52z"/>
	<path d="M505.34,142.32c0-12.98,0.13-25.96-0.07-38.93c-0.07-4.28,1.25-5.88,5.68-5.83c16.47,0.2,32.94,0.16,49.41,0.02
		c3.9-0.03,5.23,1.44,5.31,5.26c0.21,10.32,0.34,10.31-9.72,10.32c-8.82,0.01-17.64,0.15-26.45-0.02c-3.66-0.07-5.19,1.24-5,4.91
		c0.18,3.65,0.19,7.32,0.06,10.98c-0.12,3.49,1.47,4.67,4.82,4.62c8.15-0.13,16.31,0.12,24.45-0.13c4.32-0.13,6.23,1.39,5.8,5.75
		c-0.14,1.48-0.08,2.99-0.04,4.49c0.09,3.18-1.45,4.41-4.59,4.38c-8.48-0.08-16.97,0.13-25.45-0.04c-3.61-0.07-5.21,1.14-5.06,4.86
		c0.18,4.65,0.16,9.32,0.05,13.97c-0.08,3.41,1.38,4.72,4.78,4.68c10.15-0.13,20.3,0.08,30.44-0.13c4.16-0.09,6,1.09,5.99,5.59
		c0,9.99,0.19,9.99-10.01,9.99c-14.81,0-29.62-0.13-44.42,0.08c-4.46,0.06-6.18-1.23-6.09-5.91
		C505.51,168.28,505.34,155.3,505.34,142.32z"/>
	<path d="M810.9-12.94c3.85-8.46,7.13-15.68,10.41-22.9c0.41-0.91,0.81-1.82,1.24-2.72c6.57-14.08,6.57-13.97,21.97-13.67
		c4.29,0.09,4.88,1.35,2.99,4.98c-8.28,15.93-16.35,31.96-24.69,47.85c-1.61,3.07-2.41,6.07-2.36,9.49
		c0.11,7.48-0.04,14.96,0.08,22.44c0.05,3.34-1.17,4.84-4.65,4.78c-17.95-0.31-15.16,2.22-14.55-14.12
		c0.5-13.56-2.76-25.26-9.6-36.76c-6.62-11.12-11.98-22.98-17.93-34.5c-1.33-2.57-1.17-4.14,2.2-4.1c0.17,0,0.33,0,0.5-0.01
		c15.53-0.96,15.57-0.98,22.21,12.96C802.62-31,806.38-22.69,810.9-12.94z"/>
	<path d="M607.38,97.65c10.31,0,20.62,0.14,30.92-0.07c4.18-0.08,5.45,1.53,5.46,5.56c0.01,10.02,0.16,10.02-9.92,10.03
		c-3.49,0-6.98,0.02-10.47,0.04c-6.7,0.03-6.72,0.03-6.73,6.55c-0.03,19.95-0.03,39.9-0.05,59.85c-0.01,7.53-0.02,7.63-7.41,7.49
		c-13.34-0.25-11.81,1.96-11.86-12.02c-0.06-18.62-0.14-37.24,0.12-55.86c0.07-4.89-1.58-6.43-6.31-6.13
		c-5.46,0.35-10.97,0.04-16.45,0.11c-2.91,0.04-4.08-1.25-4.3-4.16c-0.86-11.07-0.65-11.37,10.58-11.37c8.81,0,17.62,0,26.43,0
		C607.38,97.66,607.38,97.65,607.38,97.65z"/>
</g>
</svg>
